<svg fill="#8b8b8b" role="img" viewBox="0 0 256 256" xmlns="http://www.w3.org/2000/svg"><title>Game</title><path d="M176 104a8 8 0 0 1 8-8h16a8 8 0 0 1 0 16h-16a8 8 0 0 1-8-8Zm-12 24a8 8 0 1 0 8 8 8 8 0 0 0-8-8ZM92 96H80V84a8 8 0 0 0-16 0v12H52a8 8 0 0 0 0 16h12v12a8 8 0 0 0 16 0v-12h12a8 8 0 0 0 0-16Zm148.46 48.45-16.37 60a24.06 24.06 0 0 1-23.16 17.69 24.32 24.32 0 0 1-2.71-.15 24 24 0 0 1-20.39-16.07L160.92 200H95.08l-4.91 13.92a24 24 0 0 1-20.39 16.07 24.32 24.32 0 0 1-2.71.15 24.06 24.06 0 0 1-23.16-17.69l-16.37-60a87.36 87.36 0 0 1 8.32-65.16A87.7 87.7 0 0 1 88 47.43 8 8 0 0 1 96 40h64a8 8 0 0 1 8 7.43 87.7 87.7 0 0 1 52.14 39.86 87.36 87.36 0 0 1 8.32 65.16ZM208 144a64 64 0 0 0-64-64h-32a64 64 0 0 0-64 64 8 8 0 0 0 .27 2.08L48.5 187.79A8 8 0 0 0 56 198.36a8 8 0 0 0 7.51-5.29L70.92 184h114.16l7.41 9.07a8 8 0 0 0 14.94-5.28l-9.74-39.71A8 8 0 0 0 208 144Z"/></svg>
