<svg fill="#6E8B3D" role="img" viewBox="27 140.61 446.03 218.79" xmlns="http://www.w3.org/2000/svg"><title>War Thunder</title><path d="M110.115,143.822c0.116,0.694,3.96,27.838,8.614,60.359l8.412,59.117l5.29,0.086c3.556,0.058,5.261-0.029,5.261-0.232 c0-1.416-4.827-8.672-9.163-13.789l-1.503-1.763l1.07-0.174c0.578-0.086,2.11-0.231,3.382-0.318 c5.146-0.376,11.823-1.416,15.177-2.37c2.631-0.752,6.389-2.486,12.604-5.868c9.106-4.943,10.349-5.493,12.314-5.493h1.677v15.032 v15.032h15.032c8.267,0,15.032-0.087,15.032-0.232c0-0.115,1.561-11.129,3.498-24.456c2.486-17.201,3.382-24.312,3.151-24.456 c-0.26-0.174-3.96-1.07-15.812-3.845l-2.949-0.694l-0.145,0.751c-0.087,0.405-0.289,1.851-0.462,3.209 c-0.376,3.209-0.578,4.423-0.723,4.278c-0.057-0.057-1.474-7.776-3.151-17.142c-1.676-9.395-3.122-17.345-3.208-17.72 c-0.145-0.608-0.26-0.636-3.469-0.636h-3.324v8.065v8.036l1.821,0.492c0.983,0.26,2.717,0.983,3.816,1.561l2.024,1.069l0.087,3.672 l0.087,3.7h-0.896h-0.867v6.649v6.649h2.168c1.763,0,2.197,0.087,2.4,0.492c0.144,0.289,0.693,2.11,1.214,4.047l0.983,3.526 l3.729,0.087l3.729,0.087l2.717,5.926c1.475,3.238,2.659,5.926,2.602,5.984c-0.029,0.029-1.388-0.231-2.978-0.636 c-3.903-0.924-7.343-2.486-15.957-7.197c-3.961-2.168-7.95-4.221-8.875-4.539c-3.296-1.185-4.625-0.723-15.581,5.347 c-6.851,3.787-10.667,5.493-14.396,6.389c-1.589,0.405-2.949,0.665-3.007,0.608c-0.057-0.058,0.29-0.926,0.752-1.908 c0.809-1.706,0.838-1.85,0.376-2.168c-0.26-0.202-4.25-2.659-8.875-5.492c-4.597-2.804-8.441-5.174-8.499-5.232 c-0.231-0.202,0.809-2.139,1.214-2.313c0.202-0.057,4.394,2.053,9.308,4.741l8.962,4.886l0.954-1.995 c0.52-1.099,0.896-2.081,0.809-2.197c-0.087-0.144-3.007-1.995-6.504-4.105l-6.331-3.874l0.549-1.069 c0.29-0.607,0.665-1.157,0.781-1.243c0.145-0.087,4.452,2.11,9.54,4.885c5.116,2.775,9.424,5.059,9.539,5.059 s0.492-0.983,0.809-2.168l0.607-2.168l-5.522-3.383c-3.035-1.85-6.013-3.671-6.62-4.046l-1.099-0.694l0.636-1.127 c0.376-0.636,0.781-1.157,0.926-1.157c0.173,0,3.035,1.503,6.417,3.324l6.157,3.324h2.341h2.341v-6.649v-6.649h-0.867h-0.896 l0.086-3.7l0.087-3.672l2.024-1.069c1.127-0.578,2.832-1.301,3.844-1.561l1.792-0.492v-8.036V182.5h-3.815h-3.845l-3.903-1.358 l-3.903-1.388l6.88-0.087l6.851-0.057v-1.59c0-1.503,0.058-1.619,1.127-2.4c0.954-0.694,1.879-1.069,4.018-1.677 c0.26-0.086,0.347-2.457,0.347-10.667v-10.551h-9.25c-5.088,0-9.251,0.087-9.251,0.202c0.029,0.433-11.621,65.274-11.765,65.707 c-0.144,0.376-0.174,0.376-0.26,0c-0.145-0.665-9.656-75.131-9.656-75.594c0-0.376-1.474-0.433-10.407-0.433h-10.407 L110.115,143.822z"/><path d="M199.845,142.954c0,0.578-6.62,51.167-6.822,51.947l-0.145,0.665l3.411-0.174c1.879-0.116,6.36-0.318,10.002-0.433 c3.614-0.144,6.648-0.318,6.735-0.405c0.087-0.087,1.764-11.39,3.758-25.121c1.966-13.702,3.642-25.38,3.73-25.901l0.173-0.925 h-10.436C202.129,142.607,199.845,142.694,199.845,142.954"/><path d="M238.957,168.393c-3.7,14.165-6.678,25.815-6.649,25.843c0.231,0.174,12.575-0.491,13.471-0.751 c1.966-0.52,1.995-0.607,2.197-7.372c0.26-8.932,0.636-12.72,1.416-14.454c0.376-0.809,1.475-2.515,2.428-3.845 c1.706-2.255,1.85-2.37,2.92-2.37c1.301,0,2.11,0.781,4.394,4.278c1.966,3.007,2.197,4.452,2.516,15.755 c0.202,6.649,0.231,6.909,0.838,7.429c0.347,0.289,1.243,0.607,1.994,0.723c1.243,0.174,12.604,0.695,12.778,0.578 c0.029-0.029-2.978-11.621-6.678-25.756l-6.736-25.699l-9.105-0.087l-9.077-0.058L238.957,168.393z"/><path d="M307.238,142.955c-0.087,0.202-0.116,12.025-0.087,26.248l0.087,25.872l4.77,0.203c6.504,0.318,8.297,0.607,9.221,1.532 c0.694,0.665,0.751,0.896,0.694,3.122c-0.116,4.134-1.214,8.354-2.457,9.366c-0.202,0.174-2.977,0.925-6.129,1.648 c-3.151,0.752-5.868,1.417-5.984,1.503c-0.144,0.087-0.26,7.458-0.26,16.362c0,8.932,0.087,16.16,0.174,16.044 c0.116-0.087,1.243-3.151,2.573-6.764l2.37-6.591l2.052-0.087l2.052-0.087l0.087-1.07c0.087-1.069,0.087-1.069,1.966-1.474 c1.156-0.231,3.787-0.376,6.938-0.376c3.151,0,5.782,0.145,6.938,0.376l1.879,0.405l0.087,1.099l0.087,1.069h7.429h7.458 l1.099,3.036l1.099,3.035h2.573h2.573l0.492,1.012c0.26,0.55,0.664,1.012,0.867,1.012c0.202,0,1.965-0.405,3.873-0.925 c3.325-0.867,3.527-0.896,3.874-0.405c0.376,0.492,0.723,0.434,6.562-0.867c3.382-0.723,6.186-1.388,6.216-1.416 c0.057-0.029-1.272-3.383-2.92-7.43l-3.007-7.372l6.909-6.909l6.909-6.909v-25.439v-25.439l-6.851-6.851l-6.88-6.88h-32.608 C314.146,142.608,307.324,142.694,307.238,142.955 M366.354,181.344v19.657h-19.657h-19.658v-19.657v-19.657h19.658h19.657V181.344 z"/><path d="M173.019,163.305l0.087,10.581l1.676,0.52c0.896,0.289,2.11,0.867,2.659,1.272c0.926,0.723,1.012,0.896,1.012,2.371v1.561 h2.168c1.243,0,2.168-0.116,2.168-0.289c0-0.173-1.041-6.071-2.312-13.153c-1.272-7.082-2.313-12.979-2.313-13.153 c0-0.174-1.07-0.289-2.602-0.289h-2.602L173.019,163.305z"/><path d="M67.043,192.184c-1.908,4.047-3.614,7.372-3.787,7.372c-0.174,0-3.816,0.462-8.095,1.012 c-4.307,0.549-7.834,1.012-7.891,1.012c-0.029,0,2.659,2.544,5.954,5.637l6.042,5.666l-1.388,7.285 c-0.78,4.018-1.474,7.661-1.589,8.094c-0.202,0.983-1.156,1.416,7.748-3.469l6.591-3.613l7.14,3.903 c3.932,2.168,7.198,3.902,7.227,3.845c0.057-0.058-0.55-3.469-1.359-7.632c-0.781-4.134-1.445-7.776-1.445-8.065 c0-0.318,2.4-2.746,5.897-6.013c3.238-3.035,5.84-5.55,5.781-5.608c-0.057-0.087-15.205-2.053-15.87-2.053 c-0.173,0-1.85-3.324-3.758-7.372c-1.879-4.047-3.497-7.372-3.584-7.372C70.541,184.813,68.922,188.137,67.043,192.184"/><path d="M427.812,192.098c-1.879,4.018-3.441,7.343-3.469,7.372c0,0-3.353,0.433-7.4,0.925c-4.047,0.492-7.718,1.012-8.152,1.127 c-0.723,0.202-0.492,0.463,5.116,5.695c3.267,3.007,5.926,5.695,5.926,5.955c0,0.232-0.636,3.816-1.445,7.95 c-0.78,4.105-1.445,7.603-1.445,7.718c0,0.144,0.867-0.231,1.966-0.809c1.07-0.607,4.307-2.37,7.198-3.96l5.261-2.891l7.141,3.932 c3.932,2.168,7.199,3.903,7.227,3.845c0.058-0.058-2.456-13.731-2.89-15.582c-0.058-0.318,1.879-2.312,5.811-6.013 c3.238-3.064,5.84-5.608,5.753-5.695c-0.116-0.116-14.83-2.11-15.668-2.11c-0.174,0-1.85-3.324-3.758-7.372 c-1.879-4.047-3.527-7.372-3.614-7.372C431.281,184.813,429.691,188.109,427.812,192.098"/><path d="M220.138,240.547c-3.238,12.344-5.84,22.548-5.84,22.664c0,0.144,4.365,0.232,9.684,0.232h9.684v-2.891 c0-3.036,0.26-3.99,1.214-4.596c1.185-0.752,6.244-2.429,10.609-3.527c2.457-0.606,4.481-1.156,4.509-1.185 c0.058-0.058-0.433-5.753-1.04-12.661c-1.214-13.674-1.127-13.298-3.122-14.656c-1.272-0.867-4.249-1.821-12.17-3.845 c-3.729-0.954-6.996-1.792-7.227-1.879C226.064,218.086,224.937,222.046,220.138,240.547"/><path d="M276.451,219.965c-11.39,2.92-13.615,3.816-14.397,5.781c-0.317,0.867-2.486,23.993-2.312,25.034 c0.087,0.492,0.78,0.752,4.422,1.677c7.025,1.792,10.841,3.238,11.419,4.307c0.144,0.319,0.289,1.937,0.289,3.614v3.065h9.858 c7.921,0,9.829-0.087,9.712-0.376c-0.086-0.202-2.746-10.378-5.954-22.606c-3.209-12.228-5.868-22.258-5.897-22.288 C283.562,218.144,280.354,218.953,276.451,219.965"/><path d="M319.234,242.166l-1.214,2.717l-3.007,0.376c-1.648,0.173-3.007,0.375-3.007,0.433c0,0.057,0.983,1.04,2.168,2.197 l2.197,2.11l-0.607,2.862c-0.318,1.561-0.578,2.891-0.578,2.977c0,0.087,1.243-0.52,2.746-1.33l2.717-1.475l2.544,1.417 c1.387,0.78,2.601,1.358,2.659,1.301c0.058-0.058-0.116-1.417-0.405-2.978l-0.521-2.891l2.255-2.139l2.283-2.139l-3.093-0.347 l-3.122-0.376l-1.272-2.717c-0.694-1.503-1.33-2.717-1.387-2.717C320.535,239.448,319.928,240.663,319.234,242.166"/><path d="M374.101,244.594c-5.406,1.706-6.013,1.965-6.013,2.544c0,0.665-0.317,0.78-6.995,2.486l-2.516,0.636l-0.693,1.619 l-0.694,1.619l1.387,3.873c0.781,2.11,1.33,3.96,1.243,4.076c-0.087,0.144-1.301,0.26-2.747,0.26h-2.573v0.867v0.867h17.489 c9.626,0,17.489-0.087,17.489-0.232c0-0.116-1.85-4.799-4.105-10.407c-3.556-8.788-4.191-10.176-4.712-10.146 C380.345,242.686,377.397,243.553,374.101,244.594"/><polygon points="29,285.99 29,292.349 38.684,292.349 48.369,292.349 48.369,324.872 48.369,357.393 54.728,357.393 61.087,357.393 61.146,324.928 61.232,292.494 71.003,292.408 80.745,292.349 80.745,285.99 80.745,279.63 54.873,279.63 29,279.63"/><polygon points="94.043,318.511 94.043,357.393 100.402,357.393 106.762,357.393 106.82,341.118 106.906,324.871 119.915,324.871 132.924,324.871 133.01,341.146 133.068,357.393 139.428,357.393 145.788,357.393 145.788,318.511 145.788,279.63 139.428,279.63 133.068,279.63 133.068,295.819 133.068,312.007 119.915,312.007 106.762,312.007 106.762,295.819 106.762,279.63 100.402,279.63 94.043,279.63"/><polygon points="159.085,312.094 159.085,344.529 165.532,350.975 171.949,357.393 184.958,357.393 197.966,357.393 204.384,350.975 210.83,344.529 210.83,312.094 210.83,279.63 204.47,279.63 198.111,279.63 198.111,309.348 198.111,339.036 195.278,341.869 192.473,344.673 184.958,344.673 177.441,344.673 174.609,341.84 171.805,339.036 171.805,309.319 171.805,279.63 165.445,279.63 159.085,279.63"/><path d="M224.128,318.511v38.881h6.36h6.36v-24.803c0.029-19.542,0.087-24.687,0.375-24.311c0.202,0.26,6.071,11.418,13.066,24.774 l12.72,24.341h6.447h6.417v-38.881V279.63h-6.359h-6.36v24.745c0,13.587-0.115,24.658-0.23,24.572 c-0.145-0.086-6.042-11.216-13.096-24.716l-12.835-24.572l-6.417-0.029h-6.447V318.511z"/><path d="M289.17,318.511v38.881h19.426h19.455l6.417-6.418l6.447-6.446v-26.017v-26.017l-6.447-6.446l-6.417-6.418h-19.455H289.17 V318.511z M325.507,295.009l2.688,2.688v20.669v20.669l-2.832,2.832l-2.834,2.804l-10.233-0.057l-10.263-0.087l-0.087-26.104 l-0.058-26.076h10.464h10.494L325.507,295.009z"/><polygon points="354.213,318.511 354.213,357.393 380.085,357.393 405.958,357.393 405.958,351.032 405.958,344.673 386.532,344.615 367.077,344.529 367.077,334.7 367.077,324.871 376.847,324.784 386.59,324.726 386.59,318.367 386.59,312.007 376.761,312.007 366.932,312.007 366.932,302.178 366.932,292.35 386.445,292.35 405.958,292.35 405.958,285.99 405.958,279.63 380.085,279.63 354.213,279.63"/><path d="M419.255,318.511v38.881h6.36h6.359l0.058-16.275l0.087-16.246l5.319-0.087c3.208-0.029,5.434,0.029,5.637,0.232 c0.202,0.144,3.411,7.487,7.14,16.304l6.764,16.043l7.054,0.029c5.521,0,6.995-0.087,6.88-0.376 c-0.087-0.173-3.093-7.4-6.678-16.043c-3.586-8.615-6.534-15.784-6.534-15.928c0-0.116,3.007-3.122,6.649-6.649l6.649-6.447v-9.742 v-9.713l-6.447-6.446l-6.417-6.418h-19.455h-19.426V318.511z M455.592,295.009l2.688,2.688v4.481v4.481l-2.659,2.659l-2.689,2.689 h-10.464h-10.494v-9.829v-9.829h10.464h10.494L455.592,295.009z"/></svg>